<?xml version="1.0" encoding="UTF-8" standalone="no"?>
<svg
   xmlns:dc="http://purl.org/dc/elements/1.1/"
   xmlns:cc="http://creativecommons.org/ns#"
   xmlns:rdf="http://www.w3.org/1999/02/22-rdf-syntax-ns#"
   xmlns:svg="http://www.w3.org/2000/svg"
   xmlns="http://www.w3.org/2000/svg"
   xmlns:xlink="http://www.w3.org/1999/xlink"
   xmlns:sodipodi="http://sodipodi.sourceforge.net/DTD/sodipodi-0.dtd"
   xmlns:inkscape="http://www.inkscape.org/namespaces/inkscape"
   version="1.0"
   width="190pt"
   height="27pt"
   viewBox="0 0 191.34074 27.190503"
   preserveAspectRatio="xMidYMid meet"
   id="svg26"
   sodipodi:docname="logo3.svg"
   inkscape:version="1.0 (4035a4fb49, 2020-05-01)">
  <metadata
     id="metadata32">
    <rdf:RDF>
      <cc:Work
         rdf:about="">
        <dc:format>image/svg+xml</dc:format>
        <dc:type
           rdf:resource="http://purl.org/dc/dcmitype/StillImage" />
        <dc:title></dc:title>
      </cc:Work>
    </rdf:RDF>
  </metadata>
  <defs
     id="defs30">
    <linearGradient
       id="linearGradient877"
       inkscape:collect="always">
      <stop
         id="stop873"
         offset="0"
         style="stop-color:#c41c00;stop-opacity:1;" />
      <stop
         id="stop875"
         offset="1"
         style="stop-color:#c41c00;stop-opacity:0;" />
    </linearGradient>
    <linearGradient
       gradientUnits="userSpaceOnUse"
       y2="12.520043"
       x2="143.69579"
       y1="12.520043"
       x1="46.642628"
       id="linearGradient879"
       xlink:href="#linearGradient877"
       inkscape:collect="always" />
  </defs>
  <sodipodi:namedview
     inkscape:document-rotation="0"
     pagecolor="#ffffff"
     bordercolor="#666666"
     borderopacity="1"
     objecttolerance="10"
     gridtolerance="10"
     guidetolerance="10"
     inkscape:pageopacity="0"
     inkscape:pageshadow="2"
     inkscape:window-width="1260"
     inkscape:window-height="1040"
     id="namedview28"
     showgrid="false"
     inkscape:zoom="2.8207965"
     inkscape:cx="151.14652"
     inkscape:cy="84.521247"
     inkscape:window-x="182"
     inkscape:window-y="0"
     inkscape:window-maximized="0"
     inkscape:current-layer="svg26"
     inkscape:document-units="cm"
     scale-x="28.54646" />
  <text
     xml:space="preserve"
     style="font-style:normal;font-variant:normal;font-weight:normal;font-stretch:normal;font-size:34.5018px;line-height:1.25;font-family:'Mongolian Baiti';-inkscape-font-specification:'Mongolian Baiti, Normal';font-variant-ligatures:normal;font-variant-caps:normal;font-variant-numeric:normal;font-variant-east-asian:normal;fill:#ffffff;fill-opacity:1;stroke:none;stroke-width:0.86254;"
     x="0.16484329"
     y="24.236841"
     id="text36"
     transform="scale(0.92138988,1.0853169)"><tspan
       sodipodi:role="line"
       id="tspan34"
       x="0.16484329"
       y="24.236841"
       style="font-style:normal;font-variant:normal;font-weight:normal;font-stretch:normal;font-size:34.5018px;font-family:'Mongolian Baiti';-inkscape-font-specification:'Mongolian Baiti, Normal';font-variant-ligatures:normal;font-variant-caps:normal;font-variant-numeric:normal;font-variant-east-asian:normal;fill:#ffffff;fill-opacity:1;stroke-width:0.86254;">Pinto Bracesco</tspan></text>
  <text
     xml:space="preserve"
     style="font-style:normal;font-weight:normal;font-size:30px;line-height:1.25;font-family:sans-serif;fill:#000000;fill-opacity:1;stroke:none;stroke-width:0.75"
     x="36.027058"
     y="65.672935"
     id="text40"><tspan
       sodipodi:role="line"
       id="tspan38"
       x="36.027058"
       y="65.672935"
       style="stroke-width:0.75" /></text>
  <path
     style="fill:#ffffff;stroke-width:0.189334"
     d="m -49.954639,114.03582 c -2.54714,-0.13602 -3.313341,-0.2718 -3.313341,-0.5872 0,-0.33299 0.788769,-1.75763 1.632235,-2.94807 2.657449,-3.75062 3.238325,-4.94327 3.49111,-7.16794 0.09687,-0.8525 0.348298,-1.93924 0.558738,-2.41497 0.476132,-1.076373 0.803011,-3.243632 1.419492,-9.411437 0.661678,-6.619994 1.12088,-9.648291 1.607754,-10.602641 0.511274,-1.002182 0.573068,-2.537515 0.120346,-2.990147 -0.293085,-0.293028 -0.97307,-0.323244 -7.274496,-0.323244 -7.494254,0 -8.297981,0.08596 -8.862729,0.947875 -0.478246,0.729897 -0.179148,1.7583 1.369057,4.707279 5.625274,10.714871 7.030836,14.538904 6.521194,17.741855 -0.253551,1.59352 -1.308226,3.65282 -2.604295,5.08502 -1.819309,2.0104 -4.583075,3.03217 -8.219477,3.03876 -5.211907,0.009 -8.83981,-2.46389 -10.120451,-6.89963 -0.47879,-1.65838 -0.304602,-4.588516 0.400025,-6.729118 0.291363,-0.885135 2.048679,-4.633944 3.905148,-8.330685 3.631781,-7.23188 3.955741,-8.124599 3.21658,-8.863761 -0.572988,-0.572987 -1.601213,-0.790021 -3.748427,-0.791206 -2.229674,-0.0012 -3.786073,-0.254266 -4.272689,-0.694648 -0.199411,-0.180464 -0.344497,-0.572703 -0.344497,-0.931347 0,-1.327709 1.468132,-1.855202 6.404726,-2.301189 3.586481,-0.324012 4.525307,-0.311734 20.842311,0.272574 l 3.296317,0.11804 -0.127384,-1.657195 c -0.142517,-1.854116 -0.339534,-2.380641 -0.890795,-2.380641 -0.59627,0 -2.008736,-1.447656 -2.634723,-2.700366 -0.690157,-1.381129 -0.718561,-2.191245 -0.12106,-3.452981 0.888067,-1.875322 2.55309,-2.92273 4.660014,-2.931452 3.038233,-0.01258 5.544774,2.093974 5.544774,4.659947 0,1.730598 -1.367327,3.840125 -2.799435,4.318997 -0.993551,0.332228 -1.224492,0.82868 -1.227878,2.639576 l -0.0028,1.492385 7.14735,-0.106062 c 7.095231,-0.105289 8.727311,-0.226978 10.958918,-0.817104 1.321063,-0.349342 2.151644,-0.283619 3.732979,0.295387 0.810704,0.29684 1.829649,0.448015 3.80504,0.564535 3.01738,0.177982 4.28653,0.561753 4.674628,1.413534 0.290349,0.637247 -0.06628,1.500475 -0.748312,1.811259 -0.279579,0.1274 -1.897686,0.29714 -3.599753,0.377615 -3.687476,0.17435 -4.065314,0.333361 -4.159364,1.750446 -0.06228,0.938412 0.13796,1.371405 2.871372,6.208984 3.140931,5.558808 5.239295,11.273164 5.229079,14.240052 -0.0079,2.279644 -1.083131,4.833304 -2.739885,6.506884 -1.942455,1.96219 -4.594593,2.96729 -7.860008,2.97879 -3.123869,0.011 -5.746331,-1.08442 -8.069162,-3.37051 -2.04629,-2.01393 -3.085869,-4.48216 -2.823494,-6.703698 0.292483,-2.476458 2.175186,-7.109546 5.508697,-13.556183 2.032867,-3.931337 2.92262,-6.01064 2.92262,-6.829998 0,-0.370846 -0.159938,-0.549714 -0.710002,-0.794039 -0.605512,-0.268955 -1.655593,-0.325823 -7.135293,-0.386415 -6.782787,-0.075 -8.260944,0.0037 -8.721523,0.464264 -0.426327,0.426326 -0.344326,1.70188 0.180763,2.811824 0.534129,1.129062 1.054581,4.398932 1.521999,9.562376 0.577434,6.378753 1.023146,9.377864 1.603858,10.792029 0.192425,0.4686 0.411261,1.4484 0.4863,2.17733 0.202986,1.97185 0.664716,2.99007 2.813153,6.20365 2.142357,3.20448 2.540804,4.01566 2.062611,4.19916 -1.045317,0.40113 -11.921981,0.58479 -17.377924,0.29345 z m 8.747495,-2.26324 c 1.722655,-1.05036 1.543602,-3.54537 -0.322142,-4.48884 -1.046454,-0.52916 -1.517336,-0.54497 -2.421549,-0.0813 -1.545594,0.79263 -2.097137,2.1198 -1.422373,3.42266 0.742396,1.43345 2.777647,1.99401 4.166064,1.14744 z M -56.624115,96.630817 c 1.162042,-0.590426 0.947094,-1.407238 -1.782317,-6.772862 -2.725551,-5.358036 -3.293599,-6.379738 -3.984556,-7.166694 -1.174385,-1.337551 -1.842047,-0.754537 -4.01755,3.508197 -2.541697,4.980262 -4.142492,8.605565 -4.543388,10.289355 l -0.126966,0.533266 6.964785,-0.06221 c 5.521771,-0.04932 7.073601,-0.117496 7.489992,-0.329059 z m 41.156588,-0.0033 c 0.328001,-0.122355 0.637918,-0.38136 0.688705,-0.575567 0.140118,-0.535817 -0.917525,-2.941726 -3.519152,-8.005312 -3.127262,-6.086634 -3.750572,-7.198947 -3.930657,-7.014356 -0.490031,0.502286 -6.348976,11.67421 -7.269426,13.861451 -0.658071,1.563755 -0.53819,1.697421 1.716044,1.913365 2.409853,0.230855 11.572401,0.09724 12.314486,-0.179581 z"
     id="path50" />
  <path
     style="fill:#ffffff;stroke-width:0.250676"
     d=""
     id="path52"
     transform="scale(0.75529189)" />
</svg>
